M48
;DRILL file {Pcbnew (22-Jun-2014 BZR 4027)-stable} date czw, 16 mar 2017, 12:07:10
;FORMAT={-:-/ absolute / metric / decimal}
FMAT,2
METRIC,TZ
T1C0.800
T2C1.000
T3C1.001
T4C1.200
T5C1.300
%
G90
G05
M71
T1
X140.4Y-219.65
X141.5Y-140.65
X143.1Y-51.15
X145.4Y-219.65
X146.5Y-140.65
X147.03Y-229.28
X147.03Y-231.82
X147.03Y-234.36
X147.03Y-236.9
X148.1Y-51.15
X148.13Y-150.28
X148.13Y-152.82
X148.13Y-155.36
X148.13Y-157.9
X149.73Y-60.78
X149.73Y-63.32
X149.73Y-65.86
X149.73Y-68.4
X154.65Y-219.4
X154.65Y-229.28
X154.65Y-231.82
X154.65Y-234.36
X154.65Y-236.9
X155.75Y-140.4
X155.75Y-150.28
X155.75Y-152.82
X155.75Y-155.36
X155.75Y-157.9
X157.35Y-50.9
X157.35Y-60.78
X157.35Y-63.32
X157.35Y-65.86
X157.35Y-68.4
X159.65Y-219.4
X160.75Y-140.4
X162.35Y-50.9
X242.1Y-135.95
X246.7Y-216.75
X247.1Y-135.95
X248.Y-49.25
X248.73Y-145.58
X248.73Y-148.12
X248.73Y-150.66
X248.73Y-153.2
X251.7Y-216.75
X253.Y-49.25
X253.33Y-226.38
X253.33Y-228.92
X253.33Y-231.46
X253.33Y-234.
X254.63Y-58.88
X254.63Y-61.42
X254.63Y-63.96
X254.63Y-66.5
X256.35Y-135.7
X256.35Y-145.58
X256.35Y-148.12
X256.35Y-150.66
X256.35Y-153.2
X260.95Y-216.5
X260.95Y-226.38
X260.95Y-228.92
X260.95Y-231.46
X260.95Y-234.
X261.35Y-135.7
X262.25Y-49.
X262.25Y-58.88
X262.25Y-61.42
X262.25Y-63.96
X262.25Y-66.5
X265.95Y-216.5
X267.25Y-49.
T2
X175.85Y-204.95
X175.85Y-207.35
X175.85Y-209.75
X176.95Y-125.95
X176.95Y-128.35
X176.95Y-130.75
X178.55Y-36.45
X178.55Y-38.85
X178.55Y-41.25
X178.65Y-204.95
X178.65Y-207.35
X178.65Y-209.75
X179.75Y-125.95
X179.75Y-128.35
X179.75Y-130.75
X181.35Y-36.45
X181.35Y-38.85
X181.35Y-41.25
X277.55Y-121.25
X277.55Y-123.65
X277.55Y-126.05
X280.35Y-121.25
X280.35Y-123.65
X280.35Y-126.05
X282.15Y-202.05
X282.15Y-204.45
X282.15Y-206.85
X283.45Y-34.55
X283.45Y-36.95
X283.45Y-39.35
X284.95Y-202.05
X284.95Y-204.45
X284.95Y-206.85
X286.25Y-34.55
X286.25Y-36.95
X286.25Y-39.35
T3
X125.74Y-219.65
X125.9Y-247.15
X125.9Y-251.4
X125.99Y-223.9
X126.84Y-140.65
X127.Y-168.15
X127.Y-172.4
X127.09Y-144.9
X128.44Y-51.15
X128.6Y-78.65
X128.6Y-82.9
X128.69Y-55.4
X135.9Y-219.65
X136.06Y-247.15
X136.06Y-251.4
X136.15Y-223.9
X137.Y-140.65
X137.16Y-168.15
X137.16Y-172.4
X137.25Y-144.9
X138.6Y-51.15
X138.76Y-78.65
X138.76Y-82.9
X138.85Y-55.4
X141.15Y-240.74
X141.15Y-250.9
X142.25Y-161.74
X142.25Y-171.9
X143.85Y-72.24
X143.85Y-82.4
X147.7Y-223.9
X148.8Y-144.9
X150.4Y-55.4
X153.6Y-223.9
X154.7Y-144.9
X156.3Y-55.4
X160.15Y-241.24
X160.15Y-251.4
X161.25Y-162.24
X161.25Y-172.4
X162.85Y-72.74
X162.85Y-82.9
X163.99Y-219.4
X164.24Y-223.9
X164.99Y-247.15
X164.99Y-251.4
X165.09Y-140.4
X165.34Y-144.9
X166.09Y-168.15
X166.09Y-172.4
X166.69Y-50.9
X166.94Y-55.4
X167.69Y-78.65
X167.69Y-82.9
X174.15Y-219.4
X174.4Y-223.9
X175.15Y-247.15
X175.15Y-251.4
X175.25Y-140.4
X175.5Y-144.9
X176.25Y-168.15
X176.25Y-172.4
X176.85Y-50.9
X177.1Y-55.4
X177.85Y-78.65
X177.85Y-82.9
X227.44Y-135.95
X227.6Y-163.45
X227.6Y-167.7
X227.69Y-140.2
X232.04Y-216.75
X232.2Y-244.25
X232.2Y-248.5
X232.29Y-221.
X233.34Y-49.25
X233.5Y-76.75
X233.5Y-81.
X233.59Y-53.5
X237.6Y-135.95
X237.76Y-163.45
X237.76Y-167.7
X237.85Y-140.2
X242.2Y-216.75
X242.36Y-244.25
X242.36Y-248.5
X242.45Y-221.
X242.85Y-157.04
X242.85Y-167.2
X243.5Y-49.25
X243.66Y-76.75
X243.66Y-81.
X243.75Y-53.5
X247.45Y-237.84
X247.45Y-248.
X248.75Y-70.34
X248.75Y-80.5
X249.4Y-140.2
X254.Y-221.
X255.3Y-53.5
X255.3Y-140.2
X259.9Y-221.
X261.2Y-53.5
X261.85Y-157.54
X261.85Y-167.7
X265.69Y-135.7
X265.94Y-140.2
X266.45Y-238.34
X266.45Y-248.5
X266.69Y-163.45
X266.69Y-167.7
X267.75Y-70.84
X267.75Y-81.
X270.29Y-216.5
X270.54Y-221.
X271.29Y-244.25
X271.29Y-248.5
X271.59Y-49.
X271.84Y-53.5
X272.59Y-76.75
X272.59Y-81.
X275.85Y-135.7
X276.1Y-140.2
X276.85Y-163.45
X276.85Y-167.7
X280.45Y-216.5
X280.7Y-221.
X281.45Y-244.25
X281.45Y-248.5
X281.75Y-49.
X282.Y-53.5
X282.75Y-76.75
X282.75Y-81.
T4
X128.4Y-232.4
X129.5Y-153.4
X131.1Y-63.9
X133.4Y-232.4
X134.5Y-153.4
X136.1Y-63.9
X166.9Y-232.15
X168.Y-153.15
X169.6Y-63.65
X171.9Y-232.15
X173.Y-153.15
X174.6Y-63.65
X230.1Y-148.7
X234.7Y-229.5
X235.1Y-148.7
X236.Y-62.
X239.7Y-229.5
X241.Y-62.
X268.6Y-148.45
X273.2Y-229.25
X273.6Y-148.45
X274.5Y-61.75
X278.2Y-229.25
X279.5Y-61.75
T5
X145.78Y-203.7
X146.29Y-210.9
X146.32Y-245.
X146.88Y-124.7
X147.39Y-131.9
X147.42Y-166.
X148.48Y-35.2
X148.92Y-245.4
X148.99Y-42.4
X149.02Y-76.5
X150.02Y-166.4
X150.4Y-199.8
X150.9Y-252.3
X151.5Y-120.8
X151.62Y-76.9
X152.Y-173.3
X152.38Y-206.7
X153.1Y-31.3
X153.48Y-127.7
X153.6Y-83.8
X154.98Y-207.1
X155.01Y-241.2
X155.08Y-38.2
X155.52Y-248.4
X156.08Y-128.1
X156.11Y-162.2
X156.62Y-169.4
X157.68Y-38.6
X157.71Y-72.7
X158.22Y-79.9
X247.48Y-120.
X247.99Y-127.2
X248.02Y-161.3
X250.62Y-161.7
X252.08Y-200.8
X252.1Y-116.1
X252.59Y-208.
X252.6Y-168.6
X252.62Y-242.1
X253.38Y-33.3
X253.89Y-40.5
X253.92Y-74.6
X254.08Y-123.
X255.22Y-242.5
X256.52Y-75.
X256.68Y-123.4
X256.7Y-196.9
X256.71Y-157.5
X257.2Y-249.4
X257.22Y-164.7
X258.Y-29.4
X258.5Y-81.9
X258.68Y-203.8
X259.98Y-36.3
X261.28Y-204.2
X261.31Y-238.3
X261.82Y-245.5
X262.58Y-36.7
X262.61Y-70.8
X263.12Y-78.
T0
M30
