M48
;DRILL file {Pcbnew (22-Jun-2014 BZR 4027)-stable} date wto, 14 mar 2017, 13:09:34
;FORMAT={-:-/ absolute / metric / decimal}
FMAT,2
METRIC,TZ
T1C0.800
T2C1.000
T3C1.001
T4C1.200
T5C1.300
%
G90
G05
M71
T1
X108.5Y-87.25
X113.5Y-87.25
X115.13Y-96.88
X115.13Y-99.42
X115.13Y-101.96
X115.13Y-104.5
X122.75Y-87.
X122.75Y-96.88
X122.75Y-99.42
X122.75Y-101.96
X122.75Y-104.5
X127.75Y-87.
T2
X143.95Y-72.55
X143.95Y-74.95
X143.95Y-77.35
X146.75Y-72.55
X146.75Y-74.95
X146.75Y-77.35
T3
X93.84Y-87.25
X94.Y-114.75
X94.Y-119.
X94.09Y-91.5
X104.Y-87.25
X104.16Y-114.75
X104.16Y-119.
X104.25Y-91.5
X109.25Y-108.34
X109.25Y-118.5
X115.8Y-91.5
X121.7Y-91.5
X128.25Y-108.84
X128.25Y-119.
X132.09Y-87.
X132.34Y-91.5
X133.09Y-114.75
X133.09Y-119.
X142.25Y-87.
X142.5Y-91.5
X143.25Y-114.75
X143.25Y-119.
T4
X96.5Y-100.
X101.5Y-100.
X135.Y-99.75
X140.Y-99.75
T5
X113.88Y-71.3
X114.39Y-78.5
X114.42Y-112.6
X117.02Y-113.
X118.5Y-67.4
X119.Y-119.9
X120.48Y-74.3
X123.08Y-74.7
X123.11Y-108.8
X123.62Y-116.
T0
M30
