G04 (created by PCBNEW (22-Jun-2014 BZR 4027)-stable) date wto, 14 mar 2017, 13:09:14*
%MOIN*%
G04 Gerber Fmt 3.4, Leading zero omitted, Abs format*
%FSLAX34Y34*%
G01*
G70*
G90*
G04 APERTURE LIST*
%ADD10C,0.00590551*%
%ADD11C,0.0866142*%
%ADD12R,0.0866142X0.0866142*%
%ADD13R,0.0669291X0.0669291*%
%ADD14C,0.0669291*%
%ADD15C,0.0984*%
%ADD16C,0.0787*%
%ADD17C,0.0787402*%
%ADD18C,0.0708661*%
%ADD19O,0.0787402X0.0787402*%
%ADD20C,0.0275591*%
G04 APERTURE END LIST*
G54D10*
G54D11*
X37992Y-39370D03*
G54D12*
X39960Y-39370D03*
G54D13*
X44685Y-34350D03*
G54D14*
X42716Y-34350D03*
G54D13*
X48326Y-34251D03*
G54D14*
X50295Y-34251D03*
G54D15*
X45590Y-36023D03*
X47913Y-36023D03*
G54D16*
X56397Y-46850D03*
X52397Y-46850D03*
X43011Y-46653D03*
X43011Y-42653D03*
X50492Y-46850D03*
X50492Y-42850D03*
X40944Y-34350D03*
X36944Y-34350D03*
X56003Y-34251D03*
X52003Y-34251D03*
X37007Y-46850D03*
X41007Y-46850D03*
X37007Y-45177D03*
X41007Y-45177D03*
X56397Y-45177D03*
X52397Y-45177D03*
X41043Y-36023D03*
X37043Y-36023D03*
X56102Y-36023D03*
X52102Y-36023D03*
G54D17*
X56673Y-30452D03*
X56673Y-29507D03*
X56673Y-28562D03*
X57775Y-29507D03*
X57775Y-30452D03*
X57775Y-28562D03*
G54D11*
X46850Y-47204D03*
X48669Y-45669D03*
X45047Y-44330D03*
G54D18*
X46070Y-44488D03*
X48468Y-42834D03*
G54D11*
X46653Y-26535D03*
X44834Y-28070D03*
X48456Y-29409D03*
G54D18*
X47433Y-29251D03*
X45035Y-30905D03*
G54D19*
X48326Y-41141D03*
X48326Y-40141D03*
X48326Y-39141D03*
X48326Y-38141D03*
X45326Y-38141D03*
X45326Y-39141D03*
X45326Y-40141D03*
X45326Y-41141D03*
G54D11*
X53149Y-39271D03*
G54D12*
X55118Y-39271D03*
G54D20*
X41007Y-46850D02*
X41007Y-47102D01*
X44251Y-26535D02*
X46653Y-26535D01*
X43543Y-27244D02*
X44251Y-26535D01*
X43543Y-30826D02*
X43543Y-27244D01*
X42401Y-31968D02*
X43543Y-30826D01*
X36456Y-31968D02*
X42401Y-31968D01*
X34724Y-33700D02*
X36456Y-31968D01*
X34724Y-46417D02*
X34724Y-33700D01*
X36299Y-47992D02*
X34724Y-46417D01*
X40118Y-47992D02*
X36299Y-47992D01*
X41007Y-47102D02*
X40118Y-47992D01*
X46850Y-47204D02*
X46850Y-47362D01*
X42070Y-47913D02*
X41007Y-46850D01*
X46299Y-47913D02*
X42070Y-47913D01*
X46850Y-47362D02*
X46299Y-47913D01*
X52397Y-46850D02*
X52397Y-47700D01*
X47578Y-47933D02*
X46850Y-47204D01*
X52165Y-47933D02*
X47578Y-47933D01*
X52397Y-47700D02*
X52165Y-47933D01*
X56673Y-30452D02*
X57775Y-30452D01*
X46850Y-35236D02*
X46850Y-32578D01*
X53897Y-30452D02*
X56673Y-30452D01*
X52165Y-32185D02*
X53897Y-30452D01*
X47244Y-32185D02*
X52165Y-32185D01*
X46850Y-32578D02*
X47244Y-32185D01*
X46850Y-47204D02*
X46850Y-35236D01*
X36944Y-35236D02*
X46850Y-35236D01*
X46850Y-35236D02*
X56003Y-35236D01*
X56003Y-35236D02*
X56102Y-35334D01*
X56102Y-36023D02*
X56102Y-35334D01*
X56102Y-35334D02*
X56102Y-34350D01*
X56102Y-34350D02*
X56003Y-34251D01*
X55118Y-39271D02*
X55118Y-37007D01*
X55118Y-37007D02*
X56102Y-36023D01*
X36944Y-34350D02*
X36944Y-35236D01*
X36944Y-35236D02*
X36944Y-35925D01*
X36944Y-35925D02*
X37043Y-36023D01*
X37992Y-39370D02*
X37992Y-36972D01*
X37992Y-36972D02*
X37043Y-36023D01*
X37007Y-46850D02*
X37007Y-45177D01*
X45326Y-39141D02*
X44618Y-39141D01*
X38287Y-43897D02*
X37007Y-45177D01*
X39862Y-43897D02*
X38287Y-43897D01*
X44618Y-39141D02*
X39862Y-43897D01*
X50295Y-34251D02*
X50295Y-33523D01*
X49732Y-39141D02*
X48326Y-39141D01*
X53149Y-42559D02*
X49732Y-39141D01*
X55590Y-42559D02*
X53149Y-42559D01*
X57480Y-40669D02*
X55590Y-42559D01*
X57480Y-33976D02*
X57480Y-40669D01*
X56929Y-33425D02*
X57480Y-33976D01*
X50393Y-33425D02*
X56929Y-33425D01*
X50295Y-33523D02*
X50393Y-33425D01*
X52003Y-34251D02*
X50295Y-34251D01*
X45326Y-40141D02*
X44740Y-40141D01*
X43011Y-41870D02*
X43011Y-42653D01*
X44740Y-40141D02*
X43011Y-41870D01*
X43011Y-42653D02*
X43011Y-43173D01*
X43011Y-43173D02*
X41007Y-45177D01*
X50492Y-42850D02*
X51314Y-42850D01*
X52397Y-43933D02*
X52397Y-45177D01*
X51314Y-42850D02*
X52397Y-43933D01*
X48326Y-41141D02*
X48783Y-41141D01*
X48783Y-41141D02*
X50492Y-42850D01*
X44834Y-28070D02*
X49921Y-28070D01*
X57775Y-27893D02*
X57775Y-28562D01*
X57362Y-27480D02*
X57775Y-27893D01*
X50511Y-27480D02*
X57362Y-27480D01*
X49921Y-28070D02*
X50511Y-27480D01*
X48456Y-29409D02*
X50787Y-29409D01*
X51633Y-28562D02*
X56673Y-28562D01*
X50787Y-29409D02*
X51633Y-28562D01*
X48326Y-34251D02*
X48326Y-33011D01*
X58562Y-29507D02*
X57775Y-29507D01*
X58897Y-29842D02*
X58562Y-29507D01*
X58897Y-32204D02*
X58897Y-29842D01*
X58307Y-32795D02*
X58897Y-32204D01*
X48543Y-32795D02*
X58307Y-32795D01*
X48326Y-33011D02*
X48543Y-32795D01*
X44685Y-34350D02*
X45472Y-34350D01*
X53070Y-29507D02*
X56673Y-29507D01*
X51181Y-31397D02*
X53070Y-29507D01*
X46259Y-31397D02*
X51181Y-31397D01*
X45866Y-31791D02*
X46259Y-31397D01*
X45866Y-33956D02*
X45866Y-31791D01*
X45472Y-34350D02*
X45866Y-33956D01*
X42716Y-34350D02*
X40944Y-34350D01*
X45326Y-38141D02*
X44437Y-38141D01*
X42716Y-33661D02*
X42716Y-34350D01*
X42125Y-33070D02*
X42716Y-33661D01*
X36712Y-33070D02*
X42125Y-33070D01*
X35531Y-34251D02*
X36712Y-33070D01*
X35531Y-40452D02*
X35531Y-34251D01*
X37696Y-42618D02*
X35531Y-40452D01*
X39960Y-42618D02*
X37696Y-42618D01*
X44437Y-38141D02*
X39960Y-42618D01*
X48669Y-45669D02*
X49311Y-45669D01*
X49311Y-45669D02*
X50492Y-46850D01*
X45047Y-44330D02*
X45047Y-44618D01*
X45047Y-44618D02*
X43011Y-46653D01*
X56397Y-46850D02*
X56397Y-45177D01*
X48326Y-40141D02*
X49196Y-40141D01*
X55413Y-44192D02*
X56397Y-45177D01*
X53641Y-44192D02*
X55413Y-44192D01*
X51476Y-42027D02*
X53641Y-44192D01*
X51082Y-42027D02*
X51476Y-42027D01*
X49196Y-40141D02*
X51082Y-42027D01*
X45326Y-41141D02*
X45570Y-41141D01*
X46062Y-36496D02*
X45590Y-36023D01*
X46062Y-40649D02*
X46062Y-36496D01*
X45570Y-41141D02*
X46062Y-40649D01*
X41043Y-36023D02*
X41043Y-38287D01*
X41043Y-38287D02*
X39960Y-39370D01*
X45590Y-36023D02*
X41043Y-36023D01*
X52102Y-36023D02*
X52102Y-38224D01*
X52102Y-38224D02*
X53149Y-39271D01*
X47913Y-36023D02*
X52102Y-36023D01*
X48326Y-38141D02*
X48326Y-37992D01*
X47913Y-37578D02*
X47913Y-36023D01*
X48326Y-37992D02*
X47913Y-37578D01*
M02*
