M48
;DRILL file {KiCad 4.0.2-stable} date 13.01.2017 11:44:01
;FORMAT={-:-/ absolute / metric / decimal}
FMAT,2
METRIC,TZ
T1C0.800
T2C1.000
T3C1.001
T4C1.200
T5C1.300
%
G90
G05
M71
T1
X135.5Y-111.5
X140.5Y-111.5
X147.63Y-87.13
X147.63Y-89.67
X147.63Y-92.21
X147.63Y-94.75
X155.25Y-87.13
X155.25Y-89.67
X155.25Y-92.21
X155.25Y-94.75
X167.025Y-108.425
X167.025Y-113.425
T2
X148.65Y-117.5
X148.65Y-120.3
X151.05Y-117.5
X151.05Y-120.3
X153.45Y-117.5
X153.45Y-120.3
T3
X131.84Y-86.
X132.Y-80.5
X132.Y-92.
X132.Y-97.5
X132.Y-103.
X142.Y-86.
X142.16Y-80.5
X142.16Y-92.
X142.16Y-97.5
X142.16Y-103.
X148.775Y-76.55
X154.675Y-76.55
X160.84Y-86.
X160.84Y-92.
X160.84Y-97.5
X160.84Y-103.
X161.Y-80.5
X171.Y-86.
X171.Y-92.
X171.Y-97.5
X171.Y-103.
X171.16Y-80.5
T4
X119.5Y-79.5
X124.5Y-79.5
X178.5Y-79.5
X183.5Y-79.5
T5
X117.92Y-118.6
X120.52Y-119.
X122.5Y-125.9
X126.61Y-114.8
X127.12Y-122.
X175.42Y-118.6
X178.02Y-119.
X180.Y-125.9
X184.11Y-114.8
X184.62Y-122.
T0
M30
